<svg xmlns="http://www.w3.org/2000/svg" version="1.1" xmlns:xlink="http://www.w3.org/1999/xlink" width="1500" height="336" viewBox="0 0 1500 336"><svg xml:space="preserve" width="1500" height="336" data-version="2" data-id="lg_TJNPai51AMzxURhnbO" viewBox="0 0 192 336" x="0" y="0"><rect width="100%" height="100%" fill="transparent"></rect><path fill="#ff851b" d="M94.372 144.692c-50.93 0-92.22 41.29-92.22 92.22 0 50.931 41.29 92.22 92.22 92.22 50.931 0 92.22-41.289 92.22-92.22 0-50.93-41.289-92.22-92.22-92.22m0 176.074c-46.224 0-83.854-37.63-83.854-83.854s37.63-83.821 83.854-83.821 83.822 37.597 83.822 83.821-37.598 83.854-83.822 83.854"></path><path fill="#ff851b" d="M94.372 166.502c-38.867.056-70.354 31.543-70.41 70.41 0 38.835 31.576 70.443 70.41 70.443s70.41-31.608 70.41-70.443-31.575-70.41-70.41-70.41m29.818 66.862-14.909 11.523 5.73 18.23h-.033q.228.65.228 1.334a3.906 3.906 0 0 1-6.674 2.735l-14.16-10.873-14.68 11.263a3.906 3.906 0 0 1-5.893-4.752l5.632-18.034-15.137-11.621a3.874 3.874 0 0 1 2.54-6.836h17.773l5.924-17.839a3.874 3.874 0 0 1 7.487-.293l6.055 18.1h18.001v.032a3.906 3.906 0 0 1 2.116 7.031M172.27 3.612H16.442s-9.05 0-9.05 9.05v11.132s0 9.05 9.05 9.05h12.304v33.984c0 1.79.717 4.557 1.563 6.12l41.341 59.31c.814 1.464 2.8 3.255 4.427 4.003l3.158.521h30.273l3.157-.52c1.628-.75 3.581-2.54 4.428-4.004l41.34-59.31c.847-1.563 1.563-4.33 1.563-6.12V32.844h12.272s9.05 0 9.05-9.05V12.661s0-9.049-9.05-9.049"></path></svg></svg>