<svg xmlns="http://www.w3.org/2000/svg" version="1.1" xmlns:xlink="http://www.w3.org/1999/xlink" width="1500" height="156" viewBox="0 0 1500 156"><svg xml:space="preserve" width="1500" height="156" data-version="2" data-id="lg_TJNPai51AMzxURhnbO" viewBox="0 0 562 156" x="0" y="0"><rect width="100%" height="100%" fill="transparent"></rect><path fill="#ff851b" d="M149.384 30.043q0 .3-.41 2.19-.42 1.89-.86 3.81-.44 1.92-.62 2.33-.24.83-.65 1.45-.41.62-1.42.62-.65 0-1.42-.29-2.24-.77-4.52-1.27-2.27-.51-4.69-.51-2.96 0-5.88.83-2.93.83-4.88 2.84-1.95 2.01-1.95 5.55 0 4.43 2.25 7.3 2.24 2.86 5.76 4.9 3.51 2.04 7.47 4.02 3.96 1.98 7.48 4.67 3.51 2.68 5.76 6.76 2.24 4.08 2.24 10.46 0 8.74-4.13 13.94-4.14 5.2-10.87 7.5-6.74 2.31-14.48 2.31-2.3 0-5.46-.27-3.17-.26-6.27-.82-3.1-.57-5.23-1.39-.7-.3-1.18-.71-.47-.41-.47-1.3 0-.36.47-2.33.48-1.98 1.01-3.99.53-2.01.65-2.48.29-.83.68-1.36.38-.53 1.38-.53.6 0 1.13.17 2.89.83 5.88 1.42 2.98.59 5.99.59 3.73 0 7.18-1.03 3.46-1.04 5.67-3.52 2.22-2.48 2.22-6.79 0-4.91-2.31-7.89-2.3-2.98-5.9-5.02-3.61-2.04-7.65-3.9-4.05-1.86-7.66-4.34-3.6-2.49-5.9-6.44-2.31-3.96-2.31-10.28 0-7.86 3.72-12.68 3.73-4.81 9.81-7.06 6.09-2.24 13.06-2.24 3.48 0 8.03.65 4.55.65 7.74 2.07.71.29 1.13.73.41.45.41 1.33m19.79 78.52h-9.28q-2.42 0-2.42-2.48 0-3.25.09-6.47.08-3.22.14-6.47.12-6.79.18-13.59.06-6.79.06-13.59 0-6.79-.06-13.58-.06-6.8-.18-13.59-.06-3.25-.14-6.47-.09-3.22-.09-6.47 0-2.48 2.42-2.48h9.28q2.36 0 2.42 2.42.18 3.43.15 6.88-.03 3.46-.03 6.89.06 7.2.08 14.44.03 7.24.03 14.45v9.21q0 .71.54.71.23 0 .35-.06 5.91-1.65 11.43-4.16 5.53-2.51 9.72-6.65 4.2-4.13 5.97-10.46.29-1 .83-1.56.53-.56 1.65-.56h10.64q1 0 1.71.41t.71 1.54q0 .23-.12.82-1.95 7.98-6.88 13.36-4.94 5.37-11.61 9.69-.42.29-.42.59 0 .17 1.63 2.36 1.62 2.19 4.05 5.38 2.42 3.19 4.96 6.49 2.54 3.31 4.49 5.82 1.95 2.52 2.48 3.28.35.48.74 1.1.38.62.38 1.27 0 1.12-1.15 1.33-1.15.2-1.92.2h-10.16q-1.01 0-1.83-.88-1.13-1.18-2.19-2.51-1.06-1.33-2.13-2.63-3.07-3.67-6.11-7.42-3.04-3.75-6.18-7.35-.17-.3-.53-.3-.17 0-.29.06-2.54.95-5.14 1.71-2.6.77-5.14 1.72-.53.17-.53.71l-.18 14.47q0 2.42-2.42 2.42m48.97-73.73q0-3.25 2.42-5.58 2.42-2.34 5.67-2.34 3.31 0 5.82 2.39 2.51 2.4 2.51 5.76 0 3.25-2.39 5.65-2.39 2.39-5.7 2.39-3.37 0-5.85-2.45-2.48-2.45-2.48-5.82m.88 35.62v-13.05q0-2.42 2.43-2.42h9.1q2.42 0 2.42 2.42 0 12.17.06 24.37.06 12.2.06 24.37 0 2.42-2.43 2.42h-9.33q-2.42 0-2.42-2.42 0-8.92.06-17.84.05-8.92.05-17.85m21.27-44.66q0-2.42 2.42-2.42h9.33q2.43 0 2.43 2.42 0 10.04-.06 20.09-.06 10.04-.06 20.08 0 10.05.06 20.09.06 10.05.06 20.09 0 2.42-2.43 2.42h-9.33q-2.42 0-2.42-2.42 0-10.04.06-20.09.06-10.04.06-20.09 0-10.04-.06-20.08-.06-10.05-.06-20.09m21.32 0q0-2.42 2.42-2.42h9.34q2.42 0 2.42 2.42 0 10.04-.06 20.09-.06 10.04-.06 20.08 0 10.05.06 20.09.06 10.05.06 20.09 0 2.42-2.42 2.42h-9.34q-2.42 0-2.42-2.42 0-10.04.06-20.09.06-10.04.06-20.09 0-10.04-.06-20.08-.06-10.05-.06-20.09m31.9 84.31q-3.37 0-7.03-1.24-3.67-1.24-6.09-3.72-.71-.71-.71-1.54 0-.35.39-1.8.38-1.45.85-2.99.47-1.53.59-2 .24-.71.65-1.39.42-.68 1.3-.68 1.13 0 3.49 1.47 2.36 1.48 5.43 1.48 5.38 0 5.38-5.2 0-3.37-2.16-4.66-2.15-1.3-4.63-2.6-4.97-2.66-7.57-6.5-2.6-3.84-2.6-9.57 0-7.27 4.29-11.35 4.28-4.08 11.43-4.08.89 0 2.75.24 1.86.24 3.87.74t3.42 1.36q1.42.86 1.42 2.04 0 1.12-.47 2.45t-.77 2.45q-.24.77-.65 1.48-.41.71-1.42.71-1.24 0-2.66-.65-1.41-.65-3.07-.65-2.24 0-3.96 1.33-1.71 1.33-1.71 3.75 0 2.77 1.68 4.31 1.69 1.54 4.17 2.72 2.48 1.18 4.96 2.89 2.48 1.72 4.17 4.76 1.68 3.04 1.68 8.36 0 7.56-4.22 12.82-4.23 5.26-12.2 5.26m25.93-55.95q0-5.08-.06-10.13-.06-5.06-.06-10.08 0-2.42 2.42-2.42h9.28q2.42 0 2.42 2.42 0 5.02-.03 10.08-.03 5.05-.03 10.13 0 .71.77.71h9.27q2.43 0 2.43 2.42 0 1.83-.03 3.69-.03 1.86-.03 3.75 0 2.43-2.42 2.43h-9.22q-.77 0-.77.71 0 9.57.06 19.14t.06 19.14q0 2.42-2.42 2.42h-9.4q-2.42 0-2.42-2.42 0-9.57.09-19.14t.09-19.14q0-.89-1.24-.86-1.24.03-2.84.21-1.59.17-2.84-.24-1.24-.41-1.24-2.25v-7.44q0-2.42 2.43-2.42h4.96q.77 0 .77-.71m32.31.83h7.92q2.24 0 2.42 2.18l.59 6.74q0 .06.12.85.11.8.41.8t.62-.65q.33-.65.38-.77 2.43-4.55 5.91-7.15 3.49-2.6 8.81-2.6 1.24 0 3.16.21 1.92.21 1.92 1.98 0 .89-.36 2.78-.35 1.89-.79 3.81-.45 1.92-.68 2.92-.24 1.01-.74 1.57-.51.56-1.69.56-.59 0-1.15-.09-.56-.09-1.21-.09-4.67 0-7.86 2.93-3.19 2.92-4.78 7.18-1.6 4.25-1.6 8.39v19.61q0 2.42-2.42 2.42h-9.16q-2.42 0-2.42-2.48 0-9.16.09-18.28.09-9.13.09-18.23v-12.17q0-2.42 2.42-2.42m58.72 55q-8.63 0-15.04-3.43-6.41-3.42-9.95-9.74-3.55-6.33-3.55-15.01 0-8.1 3.37-14.54 3.37-6.44 9.51-10.19 6.15-3.75 14.42-3.75 10.22 0 16.04 5.73 5.82 5.73 7.89 15.25.06.17.06.59 0 .88-.45 1.33-.44.44-1.15.73-2.01.95-4.25 1.66-2.25.71-4.38 1.53-6.2 2.31-12.46 4.52-6.26 2.22-12.41 4.7-.47.24-.47.59 0 .18.12.42 2.36 4.25 6.5 6.32 4.13 2.07 8.86 2.07 3.72 0 6.94-1.19 3.22-1.18 6.35-2.95.42-.24.83-.41.41-.18.83-.18.82 0 1.27.5.44.5.73 1.15.24.42.92 1.86.68 1.45 1.3 2.9t.62 1.86q0 .65-.35 1.06-.36.42-.83.77-4.2 2.9-10.19 4.37-6 1.48-11.08 1.48m-14.83-28.77q5.97-2.07 11.93-4.14 5.97-2.07 11.88-4.13-1.48-3.25-4.11-5.68-2.63-2.42-6.47-2.42-4.49 0-7.44 2.42-2.95 2.43-4.37 6.18-1.42 3.75-1.42 7.77m62.62 28.48q-7.68 0-12.88-3.67-5.2-3.66-7.83-9.72-2.63-6.05-2.63-13.14v-.95q.12-7.44 3.1-14 2.99-6.56 8.66-10.61 5.67-4.04 13.71-4.04 4.96 0 9.24 1.86 4.29 1.86 8.01 5.05.41.41.71.41.71 0 .68-1.47-.03-1.48.41-2.96.44-1.47 2.33-1.47h8.34q2.42 0 2.42 2.42 0 2.54-.03 5.08t-.03 5.08q0 6.5.09 13.06.09 6.56.14 13.05.06 3.08.15 6.18.09 3.1.09 6.23 0 2.48-2.42 2.48h-9.28q-1.59 0-2.06-1.03-.48-1.03-.42-2.45.06-1.42 0-2.54 0-.18-.06-.59-.06-.42-.35-.42-.24 0-.45.18-.2.18-.38.29-4.13 3.49-8.92 5.59-4.79 2.1-10.34 2.1m6.03-12.59q4.19 0 7.77-1.74 3.57-1.74 5.58-5.53.12-.23.56-1.21.44-.97.44-1.21 0-2.07-.03-4.13-.03-2.07-.03-4.08 0-.95.06-2.1.06-1.15-.06-2.04-.05-.41-.44-1.24-.38-.82-.56-1.18-2.07-3.72-5.85-5.55-3.78-1.83-7.92-1.83-4.37 0-7.68 2.18-3.31 2.19-5.17 5.76-1.86 3.58-1.86 7.83t1.95 7.92q1.95 3.66 5.41 5.91 3.45 2.24 7.83 2.24m46.25 11.46h-9.27q-2.43 0-2.43-2.48 0-3.25.09-6.47.09-3.22.15-6.47.12-6.79.18-13.59.06-6.79.06-13.59 0-6.79-.06-13.58-.06-6.8-.18-13.59-.06-3.25-.15-6.47-.09-3.22-.09-6.47 0-2.48 2.43-2.48h9.27q2.36 0 2.42 2.42.18 3.43.15 6.88-.03 3.46-.03 6.89.06 7.2.09 14.44.03 7.24.03 14.45v9.21q0 .71.53.71.24 0 .36-.06 5.9-1.65 11.43-4.16 5.52-2.51 9.72-6.65 4.19-4.13 5.96-10.46.3-1 .83-1.56t1.66-.56h10.63q1.01 0 1.71.41.71.41.71 1.54 0 .23-.11.82-1.95 7.98-6.89 13.36-4.93 5.37-11.61 9.69-.41.29-.41.59 0 .17 1.62 2.36 1.63 2.19 4.05 5.38t4.96 6.49q2.54 3.31 4.49 5.82 1.95 2.52 2.49 3.28.35.48.73 1.1.39.62.39 1.27 0 1.12-1.15 1.33-1.16.2-1.92.2h-10.17q-1 0-1.83-.88-1.12-1.18-2.18-2.51-1.07-1.33-2.13-2.63-3.07-3.67-6.12-7.42-3.04-3.75-6.17-7.35-.18-.3-.53-.3-.18 0-.3.06-2.54.95-5.14 1.71-2.6.77-5.14 1.72-.53.17-.53.71l-.18 14.47q0 2.42-2.42 2.42M43.946 60.776c-21.368 0-38.69 17.323-38.69 38.69 0 21.368 17.322 38.691 38.69 38.691 21.367 0 38.69-17.323 38.69-38.69 0-21.368-17.323-38.69-38.69-38.69m0 73.87c-19.393 0-35.18-15.787-35.18-35.18S24.552 64.3 43.945 64.3s35.167 15.774 35.167 35.167-15.774 35.18-35.167 35.18"></path><path fill="#ff851b" d="M43.946 69.927c-16.307.023-29.517 13.233-29.54 29.54 0 16.293 13.247 29.553 29.54 29.553s29.54-13.26 29.54-29.553-13.247-29.54-29.54-29.54m12.51 28.051-6.255 4.835 2.403 7.648h-.013q.095.273.095.56a1.639 1.639 0 0 1-2.8 1.147l-5.94-4.562-6.16 4.726a1.639 1.639 0 0 1-2.471-1.994l2.362-7.566-6.35-4.876a1.625 1.625 0 0 1 1.065-2.868h7.457l2.485-7.484a1.625 1.625 0 0 1 3.141-.123l2.54 7.594h7.553v.013a1.639 1.639 0 0 1 .888 2.95m20.17-96.391H11.252s-3.797 0-3.797 3.797v4.67s0 3.797 3.797 3.797h5.162v14.258c0 .751.3 1.912.656 2.567L34.413 55.56c.342.615 1.175 1.366 1.858 1.68l1.324.219h12.701l1.325-.219c.683-.314 1.502-1.065 1.857-1.68l17.345-24.883c.355-.655.655-1.816.655-2.567V13.85h5.149s3.797 0 3.797-3.797v-4.67s0-3.797-3.797-3.797m39.437 146.627q0 1.4-.58 2.54-.58 1.13-1.56 1.95-.97.82-2.24 1.27-1.26.44-2.63.44-1.88 0-3.45-.7-1.57-.7-2.49-2.07v2.38h-1.99v-6.78h1.99q0 1.14.53 2.09t1.35 1.63q.82.68 1.88 1.07 1.07.38 2.18.38.99 0 1.83-.28.84-.28 1.47-.8t1-1.28q.37-.75.37-1.7 0-1.08-.47-1.85t-1.27-1.32q-.79-.54-1.78-.93-.99-.38-2.02-.76-1.21-.42-2.43-.89-1.21-.47-2.17-1.19-.95-.72-1.55-1.75-.6-1.04-.6-2.58 0-1.36.58-2.43t1.52-1.8q.94-.74 2.19-1.12 1.25-.39 2.56-.39 1.63 0 3 .67 1.38.66 2.15 2.03v-2.32h2.07v6.37h-2.07q0-1.01-.42-1.89-.42-.88-1.14-1.5-.71-.62-1.64-.99-.92-.37-1.95-.37-.9 0-1.72.21-.82.2-1.44.65-.61.46-.98 1.17-.37.72-.37 1.71 0 .88.44 1.49.43.62 1.17 1.09.73.47 1.7.85l1.97.78q1.27.44 2.52.99 1.24.55 2.23 1.31 1 .77 1.63 1.89.63 1.12.63 2.73m11.36-2.8 8.28 8.61h-3.34l-6.51-7.14-2.87 2.63v4.51h-2.34v-22.3h2.34v14.95l9.08-8.58h3.35zm21.04-13.69v3.19h-3.18v-3.19zm3.18 20.3v2h-9.55v-2h3.6v-11.93h-3.6v-2h5.96v13.93zm19.11 0v2h-9.56v-2h3.61v-18.3h-3.61v-2h5.97v20.3zm19.1 0v2h-9.55v-2h3.61v-18.3h-3.61v-2h5.96v20.3zm21.88-2.41q0 1.4-.7 2.32-.7.93-1.8 1.47-1.11.55-2.47.78-1.35.23-2.65.23-2.17 0-4.33-.63-2.15-.63-3.72-1.66l1.04-2.01q1.76 1.11 3.47 1.71 1.71.59 3.54.59 5.28 0 5.28-2.73 0-.67-.44-1.09-.43-.42-1.17-.68-.73-.26-1.68-.42-.95-.15-1.99-.29-1.34-.19-2.65-.44-1.32-.26-2.4-.77-1.09-.52-1.75-1.37-.65-.85-.65-2.26 0-1.19.6-2.06.61-.88 1.63-1.46 1.01-.58 2.38-.85 1.37-.27 2.84-.27 2.1 0 3.76.48 1.65.49 2.99 1.4l-.94 1.82q-1.37-.95-2.77-1.34-1.4-.38-3.04-.38-.74 0-1.64.13-.89.12-1.66.44-.77.32-1.29.82-.52.51-.52 1.27 0 .67.43 1.07.44.4 1.17.67.74.26 1.69.42.95.15 1.99.29 1.3.19 2.62.44 1.33.26 2.41.75 1.09.5 1.75 1.35.67.86.67 2.26m32.26-17.89v3.19h-3.17v-3.19zm3.18 20.3v2h-9.55v-2h3.61v-11.93h-3.61v-2h5.96v13.93zm21.47-7.83v9.83h-2.36v-9.83q0-2.13-.92-3.31-.93-1.18-2.99-1.18-1.3 0-2.35.6-1.05.59-1.79 1.59-.73 1-1.12 2.29-.38 1.29-.38 2.7v7.14h-2.34v-15.93h2.34v4q1.69-4.37 6.03-4.37 5.88 0 5.88 6.47m38.21-12.47v22.3h-2.36v-18.58l-3.95 11.5h-1.67l-3.93-11.5v18.58h-2.34v-22.3h3.04l4.07 11.65 4.1-11.65zm20.35 14.39q0 1.86-.58 3.38-.59 1.52-1.7 2.61-1.1 1.08-2.64 1.7-1.54.61-3.43.61-1.86 0-3.4-.61-1.54-.62-2.64-1.7-1.11-1.09-1.7-2.61-.58-1.52-.58-3.38 0-1.81.58-3.38.59-1.56 1.7-2.66 1.1-1.11 2.64-1.73 1.54-.62 3.4-.62 1.89 0 3.43.62 1.54.62 2.64 1.73 1.11 1.1 1.7 2.66.58 1.57.58 3.38m-2.34 0q0-1.37-.4-2.52-.4-1.16-1.19-2.03-.78-.87-1.9-1.37-1.12-.49-2.52-.49t-2.52.49q-1.12.5-1.89 1.37-.77.87-1.17 2.03-.4 1.15-.4 2.52 0 1.36.4 2.52.4 1.15 1.17 1.99.77.84 1.89 1.31 1.12.48 2.52.48t2.52-.48q1.12-.47 1.9-1.31.79-.84 1.19-1.99.4-1.16.4-2.52m19.25 2.41 1.96.42q-.27 2.52-1.97 3.99-1.7 1.48-4.25 1.48-1.4 0-2.56-.46-1.16-.46-1.98-1.28-.82-.82-1.28-1.97-.45-1.16-.45-2.53v-8.08h-3.61v-2h3.61v-6.37h2.34v6.37h6.79v2h-6.79v8.08q0 .88.28 1.65.28.76.79 1.35.5.58 1.22.91.72.33 1.64.33 1.74 0 2.92-1.08 1.17-1.09 1.34-2.81m14.52-16.8v3.19h-3.18v-3.19zm3.18 20.3v2h-9.55v-2h3.6v-11.93h-3.6v-2h5.96v13.93zm22.71-5.91q0 1.86-.59 3.38-.58 1.52-1.69 2.61-1.1 1.08-2.64 1.7-1.54.61-3.43.61-1.87 0-3.4-.61-1.54-.62-2.64-1.7-1.11-1.09-1.7-2.61-.59-1.52-.59-3.38 0-1.81.59-3.38.59-1.56 1.7-2.66 1.1-1.11 2.64-1.73 1.53-.62 3.4-.62 1.89 0 3.43.62 1.54.62 2.64 1.73 1.11 1.1 1.69 2.66.59 1.57.59 3.38m-2.34 0q0-1.37-.4-2.52-.4-1.16-1.19-2.03-.78-.87-1.9-1.37-1.12-.49-2.52-.49t-2.52.49q-1.12.5-1.89 1.37-.77.87-1.17 2.03-.4 1.15-.4 2.52 0 1.36.4 2.52.4 1.15 1.17 1.99.77.84 1.89 1.31 1.12.48 2.52.48t2.52-.48q1.12-.47 1.9-1.31.79-.84 1.19-1.99.4-1.16.4-2.52m20.2-1.92v9.83h-2.36v-9.83q0-2.13-.92-3.31-.92-1.18-2.99-1.18-1.3 0-2.35.6-1.05.59-1.78 1.59-.74 1-1.12 2.29-.39 1.29-.39 2.7v7.14h-2.34v-15.93h2.34v4q1.69-4.37 6.03-4.37 5.88 0 5.88 6.47"></path></svg></svg>